<mxfile host="65bd71144e">
    <diagram id="eP-t0xWIju3HY-4lktD0" name="Page-1">
        <mxGraphModel dx="2080" dy="2386" grid="1" gridSize="10" guides="1" tooltips="1" connect="1" arrows="1" fold="1" page="1" pageScale="1" pageWidth="850" pageHeight="1100" math="0" shadow="0">
            <root>
                <mxCell id="0"/>
                <mxCell id="1" parent="0"/>
                <mxCell id="4" value="" style="edgeStyle=orthogonalEdgeStyle;html=1;" edge="1" parent="1" source="2" target="3">
                    <mxGeometry relative="1" as="geometry"/>
                </mxCell>
                <mxCell id="6" style="edgeStyle=orthogonalEdgeStyle;html=1;exitX=0.5;exitY=1;exitDx=0;exitDy=0;entryX=0.5;entryY=0;entryDx=0;entryDy=0;" edge="1" parent="1" source="2" target="5">
                    <mxGeometry relative="1" as="geometry">
                        <Array as="points">
                            <mxPoint x="-560" y="880"/>
                            <mxPoint x="-340" y="880"/>
                        </Array>
                    </mxGeometry>
                </mxCell>
                <mxCell id="8" style="edgeStyle=orthogonalEdgeStyle;html=1;exitX=0.5;exitY=1;exitDx=0;exitDy=0;entryX=0.5;entryY=0;entryDx=0;entryDy=0;" edge="1" parent="1" source="2" target="7">
                    <mxGeometry relative="1" as="geometry"/>
                </mxCell>
                <mxCell id="10" style="edgeStyle=orthogonalEdgeStyle;html=1;exitX=0.5;exitY=1;exitDx=0;exitDy=0;entryX=0.5;entryY=0;entryDx=0;entryDy=0;" edge="1" parent="1" source="2" target="9">
                    <mxGeometry relative="1" as="geometry">
                        <Array as="points">
                            <mxPoint x="-560" y="80"/>
                            <mxPoint x="-200" y="80"/>
                        </Array>
                    </mxGeometry>
                </mxCell>
                <mxCell id="12" style="edgeStyle=orthogonalEdgeStyle;html=1;exitX=0.5;exitY=1;exitDx=0;exitDy=0;entryX=0.5;entryY=0;entryDx=0;entryDy=0;" edge="1" parent="1" source="2" target="11">
                    <mxGeometry relative="1" as="geometry">
                        <Array as="points">
                            <mxPoint x="-560" y="80"/>
                            <mxPoint x="-200" y="80"/>
                            <mxPoint x="-200" y="1040"/>
                            <mxPoint x="-20" y="1040"/>
                        </Array>
                    </mxGeometry>
                </mxCell>
                <mxCell id="2" value="edw&lt;br&gt;vw_ACDOCA_FinStatemntSalesMargin" style="rounded=0;whiteSpace=wrap;html=1;" vertex="1" parent="1">
                    <mxGeometry x="-680" y="-40" width="240" height="80" as="geometry"/>
                </mxCell>
                <mxCell id="3" value="edw&lt;br&gt;dim_FinancialStatementItem" style="rounded=0;whiteSpace=wrap;html=1;" vertex="1" parent="1">
                    <mxGeometry x="-640" y="920" width="160" height="80" as="geometry"/>
                </mxCell>
                <mxCell id="5" value="edw&lt;br&gt;dim_FinancialStatementHierarchy" style="rounded=0;whiteSpace=wrap;html=1;" vertex="1" parent="1">
                    <mxGeometry x="-440" y="920" width="200" height="80" as="geometry"/>
                </mxCell>
                <mxCell id="7" value="edw&lt;br&gt;fact_ACDOCA" style="rounded=0;whiteSpace=wrap;html=1;" vertex="1" parent="1">
                    <mxGeometry x="-520" y="120" width="120" height="80" as="geometry"/>
                </mxCell>
                <mxCell id="9" value="edw&lt;br&gt;dim_ZE_EXQLMAP_DT" style="rounded=0;whiteSpace=wrap;html=1;" vertex="1" parent="1">
                    <mxGeometry x="-280" y="1080" width="160" height="80" as="geometry"/>
                </mxCell>
                <mxCell id="11" value="dm_finance&lt;br&gt;vw_dim_ProfitCenter" style="rounded=0;whiteSpace=wrap;html=1;" vertex="1" parent="1">
                    <mxGeometry x="-80" y="1080" width="120" height="80" as="geometry"/>
                </mxCell>
                <mxCell id="14" value="5" style="ellipse;whiteSpace=wrap;html=1;aspect=fixed;" vertex="1" parent="1">
                    <mxGeometry x="-840" y="280" width="80" height="80" as="geometry"/>
                </mxCell>
                <mxCell id="15" value="4" style="ellipse;whiteSpace=wrap;html=1;aspect=fixed;" vertex="1" parent="1">
                    <mxGeometry x="-840" y="440" width="80" height="80" as="geometry"/>
                </mxCell>
                <mxCell id="16" value="3" style="ellipse;whiteSpace=wrap;html=1;aspect=fixed;" vertex="1" parent="1">
                    <mxGeometry x="-840" y="600" width="80" height="80" as="geometry"/>
                </mxCell>
                <mxCell id="17" value="2" style="ellipse;whiteSpace=wrap;html=1;aspect=fixed;" vertex="1" parent="1">
                    <mxGeometry x="-840" y="760" width="80" height="80" as="geometry"/>
                </mxCell>
                <mxCell id="18" value="1" style="ellipse;whiteSpace=wrap;html=1;aspect=fixed;" vertex="1" parent="1">
                    <mxGeometry x="-840" y="920" width="80" height="80" as="geometry"/>
                </mxCell>
                <mxCell id="19" value="6" style="ellipse;whiteSpace=wrap;html=1;aspect=fixed;" vertex="1" parent="1">
                    <mxGeometry x="-840" y="120" width="80" height="80" as="geometry"/>
                </mxCell>
                <mxCell id="20" value="0" style="ellipse;whiteSpace=wrap;html=1;aspect=fixed;" vertex="1" parent="1">
                    <mxGeometry x="-840" y="1080" width="80" height="80" as="geometry"/>
                </mxCell>
            </root>
        </mxGraphModel>
    </diagram>
</mxfile>